<svg width="217" height="218" viewBox="0 0 217 218" fill="none" xmlns="http://www.w3.org/2000/svg">
<g id="bx:edit">
<path id="Vector" d="M63.2917 154.535L103.193 154.398L190.282 67.7435C193.7 64.31 195.58 59.7502 195.58 54.8997C195.58 50.0492 193.7 45.4893 190.282 42.0558L175.942 27.6497C169.106 20.7827 157.18 20.819 150.399 27.6224L63.2917 114.296V154.535ZM163.157 40.4935L177.524 54.8724L163.085 69.2423L148.744 54.8452L163.157 40.4935ZM81.375 121.871L135.896 67.6163L150.236 82.0225L95.7241 136.259L81.375 136.305V121.871Z" fill="black"/>
<path id="Vector_2" d="M45.2083 190.75H171.792C181.765 190.75 189.875 182.602 189.875 172.583V93.849L171.792 112.016V172.583H73.7619C73.5268 172.583 73.2827 172.674 73.0476 172.674C72.7493 172.674 72.4509 172.592 72.1435 172.583H45.2083V45.4167H107.117L125.2 27.25H45.2083C35.2354 27.25 27.125 35.3977 27.125 45.4167V172.583C27.125 182.602 35.2354 190.75 45.2083 190.75Z" fill="black"/>
</g>
</svg>
