<svg width="232" height="244" viewBox="0 0 232 244" fill="none" xmlns="http://www.w3.org/2000/svg">
<g id="material-symbols:database-outline">
<path id="Vector" d="M116 213.5C91.6722 213.5 71.0919 209.562 54.259 201.686C37.4261 193.811 29.0064 184.193 29 172.833V71.1667C29 59.9833 37.5002 50.4097 54.5007 42.4458C71.5011 34.4819 92.0009 30.5 116 30.5C140.006 30.5 160.509 34.4819 177.509 42.4458C194.509 50.4097 203.006 59.9833 203 71.1667V172.833C203 184.186 194.58 193.804 177.741 201.686C160.902 209.569 140.321 213.507 116 213.5ZM116 91.7542C130.339 91.7542 144.758 89.5921 159.258 85.2678C173.758 80.9436 181.894 76.3279 183.667 71.4208C181.894 66.5069 173.8 61.8472 159.384 57.4417C144.968 53.0361 130.506 50.8333 116 50.8333C101.339 50.8333 86.9613 52.9954 72.8673 57.3197C58.7733 61.6439 50.5953 66.3443 48.3333 71.4208C50.5889 76.5042 58.7669 81.1639 72.8673 85.4C86.9678 89.6361 101.345 91.7542 116 91.7542ZM116 142.333C122.767 142.333 129.292 141.994 135.575 141.317C141.858 140.639 147.861 139.663 153.584 138.389C159.3 137.121 164.697 135.556 169.776 133.692C174.854 131.828 179.484 129.71 183.667 127.338V96.8375C179.478 99.2097 174.847 101.328 169.776 103.192C164.704 105.056 159.307 106.625 153.584 107.899C147.861 109.166 141.858 110.139 135.575 110.817C129.292 111.494 122.767 111.833 116 111.833C109.233 111.833 102.628 111.494 96.1833 110.817C89.7389 110.139 83.6553 109.163 77.9327 107.889C72.2164 106.621 66.8611 105.056 61.8667 103.192C56.8722 101.328 52.3611 99.2097 48.3333 96.8375V127.338C52.3611 129.71 56.8722 131.828 61.8667 133.692C66.8611 135.556 72.2197 137.125 77.9423 138.399C83.6586 139.666 89.7389 140.639 96.1833 141.317C102.628 141.994 109.233 142.333 116 142.333ZM116 193.167C123.411 193.167 130.945 192.574 138.601 191.388C146.257 190.201 153.304 188.636 159.742 186.691C166.186 184.739 171.583 182.536 175.933 180.082C180.283 177.629 182.861 175.128 183.667 172.579V147.671C179.478 150.043 174.847 152.161 169.776 154.025C164.704 155.889 159.307 157.458 153.584 158.732C147.861 160 141.858 160.972 135.575 161.65C129.292 162.328 122.767 162.667 116 162.667C109.233 162.667 102.628 162.328 96.1833 161.65C89.7389 160.972 83.6553 159.996 77.9327 158.722C72.2164 157.455 66.8611 155.889 61.8667 154.025C56.8722 152.161 52.3611 150.043 48.3333 147.671V172.833C49.1389 175.375 51.678 177.832 55.9507 180.204C60.2233 182.576 65.5787 184.739 72.0167 186.691C78.4611 188.636 85.55 190.201 93.2833 191.388C101.017 192.574 108.589 193.167 116 193.167Z" fill="black"/>
</g>
</svg>
