<svg width="185" height="184" viewBox="0 0 185 184" fill="none" xmlns="http://www.w3.org/2000/svg">
<g id="simple-icons:progress">
<path id="Vector" d="M179.103 52.325V144.302C179.043 145.416 178.719 146.5 178.158 147.466C177.596 148.432 176.814 149.252 175.873 149.86L172.844 151.662C157.728 160.364 144.423 168.023 130.98 175.735V76.268L44.3923 26.4806C59.3773 17.9246 74.3083 9.28431 89.3087 0.766647C90.3088 0.263394 91.4139 0.00117493 92.5347 0.00117493C93.6555 0.00117493 94.7605 0.263394 95.7606 0.766647L179.088 48.6296V52.325H179.103ZM111.725 87.3003C91.9605 75.9344 72.1912 64.5775 52.4167 53.2296C51.4143 52.734 50.3101 52.476 49.1907 52.476C48.0713 52.476 46.9671 52.734 45.9648 53.2296C32.6062 60.904 19.24 68.563 5.88916 76.2603L68.4269 112.171V184C81.7777 176.341 95.0977 168.621 108.487 161.038C109.425 160.43 110.206 159.61 110.767 158.646C111.328 157.682 111.654 156.6 111.717 155.488L111.725 87.3003ZM5.89687 148.097L49.1637 172.945V123.203L5.89687 148.097Z" fill="black"/>
</g>
</svg>
