<svg width="157" height="214" viewBox="0 0 157 214" fill="none" xmlns="http://www.w3.org/2000/svg">
<path d="M78.5 26.7229C71.5602 26.7229 64.9046 29.5383 59.9974 34.5498C55.0902 39.5613 52.3333 46.3584 52.3333 53.4457C52.3333 60.5331 55.0902 67.3302 59.9974 72.3417C64.9046 77.3532 71.5602 80.1686 78.5 80.1686C85.4398 80.1686 92.0954 77.3532 97.0026 72.3417C101.91 67.3302 104.667 60.5331 104.667 53.4457C104.667 46.3584 101.91 39.5613 97.0026 34.5498C92.0954 29.5383 85.4398 26.7229 78.5 26.7229ZM32.7083 167.018C30.9734 167.018 29.3095 167.722 28.0827 168.975C26.8559 170.228 26.1667 171.927 26.1667 173.699C26.1667 175.471 26.8559 177.17 28.0827 178.423C29.3095 179.676 30.9734 180.379 32.7083 180.379H124.292C126.027 180.379 127.691 179.676 128.917 178.423C130.144 177.17 130.833 175.471 130.833 173.699C130.833 171.927 130.144 170.228 128.917 168.975C127.691 167.722 126.027 167.018 124.292 167.018H32.7083ZM0 26.7229C0 19.6355 2.75684 12.8385 7.66404 7.82695C12.5712 2.81544 19.2268 0 26.1667 0H130.833C137.773 0 144.429 2.81544 149.336 7.82695C154.243 12.8385 157 19.6355 157 26.7229V187.06C157 194.147 154.243 200.945 149.336 205.956C144.429 210.968 137.773 213.783 130.833 213.783H26.1667C19.2268 213.783 12.5712 210.968 7.66404 205.956C2.75684 200.945 0 194.147 0 187.06V26.7229ZM130.833 13.3614H26.1667C22.6968 13.3614 19.369 14.7692 16.9154 17.2749C14.4618 19.7807 13.0833 23.1792 13.0833 26.7229V133.614H39.25V106.891C39.25 103.348 40.6284 99.9493 43.082 97.4435C45.5356 94.9378 48.8634 93.5301 52.3333 93.5301H104.667C108.137 93.5301 111.464 94.9378 113.918 97.4435C116.372 99.9493 117.75 103.348 117.75 106.891V133.614H143.917V26.7229C143.917 23.1792 142.538 19.7807 140.085 17.2749C137.631 14.7692 134.303 13.3614 130.833 13.3614ZM13.0833 146.976V187.06C13.0833 190.604 14.4618 194.002 16.9154 196.508C19.369 199.014 22.6968 200.422 26.1667 200.422H130.833C134.303 200.422 137.631 199.014 140.085 196.508C142.538 194.002 143.917 190.604 143.917 187.06V146.976H13.0833Z" fill="black"/>
</svg>
