<svg width="229" height="225" viewBox="0 0 229 225" fill="none" xmlns="http://www.w3.org/2000/svg">
<g id="mdi:progress-upload">
<path id="Vector" d="M124.042 19.0312C169.174 23.4375 205.146 58.5938 209.439 103.125C210.697 115.365 209.484 127.729 205.87 139.509C202.257 151.288 196.313 162.251 188.38 171.769C180.447 181.288 170.681 189.175 159.641 194.98C148.6 200.784 136.503 204.391 124.042 205.594V186.844C158.773 182.812 186.062 155.719 190.452 121.594C191.688 111.817 190.95 101.897 188.28 92.4013C185.61 82.9053 181.061 74.0196 174.893 66.2526C168.725 58.4856 161.059 51.9896 152.333 47.1364C143.608 42.2832 133.994 39.1679 124.042 37.9688V19.2187V19.0312ZM104.958 19.3125V38.0625C91.3136 39.9375 78.4324 45.375 67.7457 53.8125L54.1011 39.9375C68.573 28.2205 86.2882 21.0362 104.958 19.3125ZM40.6474 53.1562L54.292 66.5625C45.8379 77.1534 40.4336 89.7807 38.6436 103.125H19.5603C21.4686 84.75 28.6249 67.4062 40.6474 53.1562ZM19.6557 121.875H38.7391C40.4566 135.188 45.8953 147.844 54.292 158.438L40.7428 171.844C28.889 157.574 21.5571 140.2 19.6557 121.875ZM67.7457 172.219C78.5278 180.469 91.409 185.812 104.958 187.5V206.25C86.2565 204.281 68.5091 196.875 54.1011 185.062L67.7457 172.219ZM114.5 70.3125L71.5624 112.5H104.958V150H124.042V112.5H157.437L114.5 70.3125Z" fill="black"/>
</g>
</svg>
